<?xml version="1.0" encoding="UTF-8"?>
<svg viewBox="0 0 40 40" version="1.1" xmlns="http://www.w3.org/2000/svg" xmlns:xlink="http://www.w3.org/1999/xlink">
    <!-- Generator: Sketch 49.1 (51147) - http://www.bohemiancoding.com/sketch -->
    <title>icon/add-circle</title>
    <desc>Created with Sketch.</desc>
    <defs></defs>
    <g id="icon/add-circle" stroke="none" stroke-width="1" fill="none" fill-rule="evenodd">
        <path d="M30.0480769,21.9711538 L30.0480769,18.0288462 L21.9711538,18.0288462 L21.9711538,9.95192308 L18.0288462,9.95192308 L18.0288462,18.0288462 L9.95192308,18.0288462 L9.95192308,21.9711538 L18.0288462,21.9711538 L18.0288462,30.0480769 L21.9711538,30.0480769 L21.9711538,21.9711538 L30.0480769,21.9711538 Z M20,0 C23.6538644,0 27.0352409,0.913452404 30.1442308,2.74038462 C33.1570663,4.4711625 35.5288375,6.84293365 37.2596154,9.85576923 C39.0865476,12.9647591 40,16.3461356 40,20 C40,23.6538644 39.0865476,27.0352409 37.2596154,30.1442308 C35.5288375,33.1570663 33.1570663,35.5288375 30.1442308,37.2596154 C27.0352409,39.0865476 23.6538644,40 20,40 C16.3461356,40 12.9647591,39.0865476 9.85576923,37.2596154 C6.84293365,35.4967861 4.4711625,33.1089894 2.74038462,30.0961538 C0.913452404,26.9871639 0,23.621813 0,20 C0,16.378187 0.913452404,13.0128361 2.74038462,9.90384615 C4.50321394,6.89101058 6.89101058,4.50321394 9.90384615,2.74038462 C13.0128361,0.913452404 16.378187,0 20,0 Z" id="add_circle---material" fill="#000000"></path>
    </g>
</svg>
