<?xml version="1.0" encoding="UTF-8"?>
<svg viewBox="0 0 40 40" version="1.1" xmlns="http://www.w3.org/2000/svg" xmlns:xlink="http://www.w3.org/1999/xlink">
    <!-- Generator: Sketch 49.1 (51147) - http://www.bohemiancoding.com/sketch -->
    <title>icon/checked-hover</title>
    <desc>Created with Sketch.</desc>
    <defs></defs>
    <g id="icon/checked-hover" stroke="none" stroke-width="1" fill="none" fill-rule="evenodd">
        <g id="checked-hover-copy">
            <circle id="Oval-2" fill="#FFFFFF" cx="20" cy="20" r="20"></circle>
            <path d="M15.9615385,30.0480769 L33.9903846,12.0192308 L31.1538462,9.08653846 L15.9615385,24.3269231 L8.84615385,17.1634615 L6.00961538,20 L15.9615385,30.0480769 Z M20,0 C23.6538644,0 27.0352409,0.913452404 30.1442308,2.74038462 C33.1570663,4.4711625 35.5288375,6.84293365 37.2596154,9.85576923 C39.0865476,12.9647591 40,16.3461356 40,20 C40,23.6538644 39.0865476,27.0352409 37.2596154,30.1442308 C35.5288375,33.1570663 33.1570663,35.5288375 30.1442308,37.2596154 C27.0352409,39.0865476 23.6538644,40 20,40 C16.3461356,40 12.9647591,39.0865476 9.85576923,37.2596154 C6.84293365,35.4967861 4.4711625,33.1089894 2.74038462,30.0961538 C0.913452404,26.9871639 0,23.621813 0,20 C0,16.378187 0.913452404,13.0128361 2.74038462,9.90384615 C4.50321394,6.89101058 6.89101058,4.50321394 9.90384615,2.74038462 C13.0128361,0.913452404 16.378187,0 20,0 Z" id="check_circle---material" fill="#4A4A4A"></path>
        </g>
    </g>
</svg>
