<?xml version="1.0" encoding="UTF-8" standalone="no"?>
<svg
   xmlns:dc="http://purl.org/dc/elements/1.1/"
   xmlns:cc="http://creativecommons.org/ns#"
   xmlns:rdf="http://www.w3.org/1999/02/22-rdf-syntax-ns#"
   xmlns:svg="http://www.w3.org/2000/svg"
   xmlns="http://www.w3.org/2000/svg"
   xmlns:sodipodi="http://sodipodi.sourceforge.net/DTD/sodipodi-0.dtd"
   xmlns:inkscape="http://www.inkscape.org/namespaces/inkscape"
   viewBox="0 0 40 40"
   version="1.1"
   id="svg2"
   inkscape:version="0.91 r13725"
   sodipodi:docname="chevron-right.svg">
  <metadata
     id="metadata14">
    <rdf:RDF>
      <cc:Work
         rdf:about="">
        <dc:format>image/svg+xml</dc:format>
        <dc:type
           rdf:resource="http://purl.org/dc/dcmitype/StillImage" />
        <dc:title>icon/chevron-down</dc:title>
      </cc:Work>
    </rdf:RDF>
  </metadata>
  <sodipodi:namedview
     pagecolor="#ffffff"
     bordercolor="#666666"
     borderopacity="1"
     objecttolerance="10"
     gridtolerance="10"
     guidetolerance="10"
     inkscape:pageopacity="0"
     inkscape:pageshadow="2"
     inkscape:window-width="1440"
     inkscape:window-height="747"
     id="namedview12"
     showgrid="false"
     inkscape:zoom="5.9"
     inkscape:cx="-1.1016949"
     inkscape:cy="20"
     inkscape:window-x="-8"
     inkscape:window-y="-8"
     inkscape:window-maximized="1"
     inkscape:current-layer="svg2" />
  <!-- Generator: Sketch 49.1 (51147) - http://www.bohemiancoding.com/sketch -->
  <title
     id="title4">icon/chevron-down</title>
  <desc
     id="desc6">Created with Sketch.</desc>
  <defs
     id="defs8" />
  <g
     id="icon/chevron-down"
     style="fill:#b3b3b3;fill-rule:evenodd;stroke:none;stroke-width:1"
     transform="matrix(0,-1,1,0,0.158809,39.841191)">
    <path
       d="M 39.528536,13.823821 21.116625,32.210918 C 20.802314,32.525229 20.43011,32.682382 20,32.682382 c -0.43011,0 -0.802314,-0.157153 -1.116625,-0.471464 L 0.47146402,13.823821 C 0.1571531,13.50951 0,13.13317 0,12.694789 0,12.256408 0.1571531,11.880068 0.47146402,11.565757 L 4.5905707,7.471464 C 4.9048816,7.1571531 5.2770863,7 5.707196,7 6.1373057,7 6.5095104,7.1571531 6.8238213,7.471464 L 20,20.647643 33.176179,7.471464 C 33.49049,7.1571531 33.862694,7 34.292804,7 c 0.43011,0 0.802314,0.1571531 1.116625,0.471464 l 4.119107,4.094293 C 39.842847,11.880068 40,12.256408 40,12.694789 c 0,0.438381 -0.157153,0.814721 -0.471464,1.129032 z"
       id="chevron-down---FontAwesome-Copy"
       inkscape:connector-curvature="0"
       style="fill:#b3b3b3" />
  </g>
</svg>
