<?xml version="1.0" encoding="UTF-8"?>
<svg viewBox="0 0 40 40" version="1.1" xmlns="http://www.w3.org/2000/svg" xmlns:xlink="http://www.w3.org/1999/xlink">
    <!-- Generator: Sketch 49.1 (51147) - http://www.bohemiancoding.com/sketch -->
    <title>icon/chevron-up</title>
    <desc>Created with Sketch.</desc>
    <defs></defs>
    <g id="icon/chevron-up" stroke="none" stroke-width="1" fill="none" fill-rule="evenodd">
        <path d="M39.528536,13.8238213 L21.1166253,32.2109181 C20.8023144,32.525229 20.4301097,32.6823821 20,32.6823821 C19.5698903,32.6823821 19.1976856,32.525229 18.8833747,32.2109181 L0.47146402,13.8238213 C0.157153102,13.5095104 0,13.1331701 0,12.6947891 C0,12.2564081 0.157153102,11.8800677 0.47146402,11.5657568 L4.59057072,7.47146402 C4.90488164,7.1571531 5.27708635,7 5.70719603,7 C6.13730571,7 6.50951042,7.1571531 6.82382134,7.47146402 L20,20.6476427 L33.1761787,7.47146402 C33.4904896,7.1571531 33.8626943,7 34.292804,7 C34.7229136,7 35.0951184,7.1571531 35.4094293,7.47146402 L39.528536,11.5657568 C39.8428469,11.8800677 40,12.2564081 40,12.6947891 C40,13.1331701 39.8428469,13.5095104 39.528536,13.8238213 Z" id="chevron-down---FontAwesome-Copy" fill="#000000" transform="translate(20.000000, 19.841191) rotate(-180.000000) translate(-20.000000, -19.841191) "></path>
    </g>
</svg>
