<?xml version="1.0" encoding="UTF-8"?>
<svg viewBox="0 0 65 30" version="1.1" xmlns="http://www.w3.org/2000/svg" xmlns:xlink="http://www.w3.org/1999/xlink">
    <!-- Generator: Sketch 49.1 (51147) - http://www.bohemiancoding.com/sketch -->
    <title>logo klein</title>
    <desc>Created with Sketch.</desc>
    <defs>
        <polygon id="path-1" points="6.6919946 0.123628822 0.212066087 0.123628822 0.212066087 7.44173435 6.6919946 7.44173435 6.6919946 0.123628822"></polygon>
        <polygon id="path-3" points="0.191753003 4.98950401 4.01893512 4.98950401 4.01893512 0.0322100203 0.191753003 0.0322100203 0.191753003 4.98950401"></polygon>
        <polygon id="path-5" points="0.290515426 6.35663887 3.70048541 6.35663887 3.70048541 0.149917641 0.290515426 0.149917641 0.290515426 6.35663887"></polygon>
        <polygon id="path-7" points="0.000273761238 4.98950401 4.72156008 4.98950401 4.72156008 0.0322100203 0.000273761238 0.0322100203 0.000273761238 4.98950401"></polygon>
        <polygon id="path-9" points="0.157259087 4.98950401 4.43176706 4.98950401 4.43176706 0.0318773867 0.157259087 0.0318773867 0.157259087 4.98950401"></polygon>
        <polygon id="path-11" points="7.38827893 4.87125276 7.38827893 0.0319882646 0.160872735 0.0319882646 0.160872735 4.87125276 7.38827893 4.87125276"></polygon>
        <polygon id="path-13" points="8.4337381 0.205385991 0.000272486774 0.205385991 0.000272486774 8.80820387 8.4337381 8.80820387 8.4337381 0.205385991"></polygon>
    </defs>
    <g id="Symbols" stroke="none" stroke-width="1" fill="none" fill-rule="evenodd">
        <g id="header" transform="translate(-10.000000, -11.000000)">
            <g id="logo-klein" transform="translate(10.000000, 11.000000)">
                <g id="Group-6" transform="translate(12.000000, 1.000000)">
                    <g id="Group-5">
                        <g id="Group-3" transform="translate(0.356155, 0.134838)">
                            <mask id="mask-2" fill="white">
                                <use xlink:href="#path-1"></use>
                            </mask>
                            <g id="Clip-2"></g>
                            <path d="M3.84542524,7.44173435 C4.90433371,7.44173435 5.8564753,7.20556449 6.6919946,6.7531828 L6.6919946,3.1923401 L4.05895901,3.1923401 L4.05895901,4.31386973 L5.46773434,4.31386973 L5.46773434,5.95652532 C5.04011929,6.2021198 4.47671866,6.32020473 3.85528065,6.32020473 C2.43664991,6.32020473 1.49436373,5.21863312 1.49436373,3.73342409 C1.49436373,2.34634198 2.43664991,1.24477037 3.85528065,1.24477037 C4.54461145,1.24477037 5.21532648,1.49091924 5.65224942,1.92334292 L6.5556615,0.999175897 C5.83676449,0.349985987 4.89447831,0.123240749 3.84542524,0.123240749 C1.7276083,0.123240749 0.212066087,1.57906714 0.212066087,3.81214738 C0.212066087,5.98590796 1.7276083,7.44173435 3.84542524,7.44173435" id="Fill-1" fill="#EC0000" mask="url(#mask-2)"></path>
                        </g>
                        <path d="M10.5257938,3.44531872 C11.2545462,3.44531872 11.7013245,3.87829679 11.7111799,4.56684834 L9.32124431,4.56684834 C9.40884791,3.88772141 9.83591544,3.44531872 10.5257938,3.44531872 M10.6911456,7.51730838 C11.4292058,7.51730838 12.1190842,7.25175589 12.662774,6.57318334 L11.8278022,5.93397244 C11.5359727,6.29765184 11.1570872,6.57318334 10.5745233,6.57318334 C9.92351904,6.57318334 9.3989925,6.15018428 9.32124431,5.45165372 L12.8768553,5.45165372 L12.8768553,5.12733596 C12.8768553,3.48468036 11.9926065,2.55995895 10.6911456,2.55995895 C9.28237022,2.55995895 8.15556896,3.55342464 8.15556896,5.03863367 C8.15556896,6.52384269 9.28237022,7.51730838 10.6911456,7.51730838" id="Fill-4" fill="#EC0000"></path>
                        <path d="M21.1437329,7.39950065 L21.1437329,4.58652916 C21.1437329,3.45502053 20.70681,2.56023615 19.4633864,2.56023615 C18.7636527,2.56023615 18.2681449,2.83521326 17.9281334,3.43561691 C17.6855809,2.84519227 17.1900731,2.56023615 16.4711761,2.56023615 C15.6936942,2.56023615 15.2469158,2.9732562 15.0432375,3.41565889 L15.0235267,3.41565889 L15.0235267,2.67832108 L13.9158887,2.67832108 L13.9158887,7.39950065 L15.0821116,7.39950065 L15.0821116,4.82214463 C15.0821116,4.19291274 15.3832489,3.62244611 16.1503279,3.62244611 C16.7137285,3.62244611 16.9469731,4.00608353 16.9469731,4.58652916 L16.9469731,7.39950065 L18.1126485,7.39950065 L18.1126485,4.84210265 C18.1126485,4.23227438 18.3847671,3.62244611 19.1135196,3.62244611 C19.8033979,3.62244611 19.9780575,4.13359308 19.9780575,4.72401772 L19.9780575,7.39950065 L21.1437329,7.39950065 Z" id="Fill-6" fill="#EC0000"></path>
                        <path d="M24.5535934,3.44531872 C25.2823458,3.44531872 25.7291241,3.87829679 25.7389795,4.56684834 L23.3490439,4.56684834 C23.4366475,3.88772141 23.8637151,3.44531872 24.5535934,3.44531872 M24.7189452,7.51730838 C25.4570055,7.51730838 26.1468838,7.25175589 26.6905736,6.57318334 L25.8550543,5.93397244 C25.5637724,6.29765184 25.1848868,6.57318334 24.6023229,6.57318334 C23.9513187,6.57318334 23.4267921,6.15018428 23.3490439,5.45165372 L26.9046549,5.45165372 L26.9046549,5.12733596 C26.9046549,3.48468036 26.0204061,2.55995895 24.7189452,2.55995895 C23.3101698,2.55995895 22.1833686,3.55342464 22.1833686,5.03863367 C22.1833686,6.52384269 23.3101698,7.51730838 24.7189452,7.51730838" id="Fill-8" fill="#EC0000"></path>
                        <path d="M30.129617,3.44531872 C30.8583695,3.44531872 31.3051478,3.87829679 31.3150032,4.56684834 L28.9250676,4.56684834 C29.0126712,3.88772141 29.4397387,3.44531872 30.129617,3.44531872 M30.2949688,7.51730838 C31.0330291,7.51730838 31.7229074,7.25175589 32.2665973,6.57318334 L31.4316255,5.93397244 C31.139796,6.29765184 30.7609105,6.57318334 30.1783465,6.57318334 C29.5273423,6.57318334 29.0028158,6.15018428 28.9250676,5.45165372 L32.4806786,5.45165372 L32.4806786,5.12733596 C32.4806786,3.48468036 31.5964298,2.55995895 30.2949688,2.55995895 C28.8861935,2.55995895 27.7593922,3.55342464 27.7593922,5.03863367 C27.7593922,6.52384269 28.8861935,7.51730838 30.2949688,7.51730838" id="Fill-10" fill="#EC0000"></path>
                        <path d="M34.7343906,4.82242183 C34.7343906,4.19263554 35.0355279,3.62216892 35.8031544,3.62216892 C36.6189629,3.62216892 36.657837,4.48812506 36.657837,5.00925103 L36.657837,7.39977784 L37.8235124,7.39977784 L37.8235124,4.41938078 C37.8235124,3.45529773 37.376734,2.55995895 36.1234551,2.55995895 C35.3465207,2.55995895 34.9090502,2.96355439 34.6955165,3.43533971 L34.6763532,3.43533971 L34.6763532,2.67804388 L33.5687152,2.67804388 L33.5687152,7.39977784 L34.7343906,7.39977784 L34.7343906,4.82242183 Z" id="Fill-12" fill="#EC0000"></path>
                        <path d="M39.5624985,5.84538103 C39.5624985,6.95693164 39.8537805,7.51741926 41.0878961,7.51741926 C41.3594673,7.51741926 41.7673715,7.47805761 42.0104715,7.35997269 L42.0104715,6.366507 C41.8648305,6.47516731 41.5828565,6.51452895 41.3791781,6.51452895 C40.8639595,6.51452895 40.7281739,6.21903944 40.7281739,5.74725411 L40.7281739,3.68159945 L42.0104715,3.68159945 L42.0104715,2.67815476 L40.7281739,2.67815476 L40.7281739,1.31103066 L39.5624985,1.31103066 L39.5624985,2.67815476 L38.6005015,2.67815476 L38.6005015,3.68159945 L39.5624985,3.68159945 L39.5624985,5.84538103 Z" id="Fill-14" fill="#EC0000"></path>
                        <path d="M45.0607192,3.44531872 C45.7894717,3.44531872 46.23625,3.87829679 46.2461054,4.56684834 L43.8561698,4.56684834 C43.9437734,3.88772141 44.3708409,3.44531872 45.0607192,3.44531872 M45.226071,7.51730838 C45.9641313,7.51730838 46.6540096,7.25175589 47.1976995,6.57318334 L46.3627277,5.93397244 C46.0708982,6.29765184 45.6920127,6.57318334 45.1094487,6.57318334 C44.4584445,6.57318334 43.933918,6.15018428 43.8561698,5.45165372 L47.4117808,5.45165372 L47.4117808,5.12733596 C47.4117808,3.48468036 46.527532,2.55995895 45.226071,2.55995895 C43.8172957,2.55995895 42.6904944,3.55342464 42.6904944,5.03863367 C42.6904944,6.52384269 43.8172957,7.51730838 45.226071,7.51730838" id="Fill-16" fill="#EC0000"></path>
                        <path d="M2.57921679,15.1015762 L3.65728855,12.2686467 L4.71619702,15.1015762 L2.57921679,15.1015762 Z M3.16232823,10.7934167 L0.170117891,17.7571011 L1.54001913,17.7571011 L2.16145714,16.1637862 L5.14381207,16.1637862 L5.78496089,17.7571011 L7.18388082,17.7571011 L4.22068918,10.7934167 L3.16232823,10.7934167 Z" id="Fill-18" fill="#EC0000"></path>
                        <path d="M13.3428517,12.9177812 C12.6436655,12.9177812 12.1481576,13.1933127 11.8081462,13.793162 C11.5650462,13.2032917 11.0695383,12.9177812 10.3506413,12.9177812 C9.57370693,12.9177812 9.12692859,13.3308013 8.9227027,13.7737583 L8.90353942,13.7737583 L8.90353942,13.0358661 L7.79590144,13.0358661 L7.79590144,17.7570457 L8.9615768,17.7570457 L8.9615768,15.1802441 C8.9615768,14.5504578 9.26271416,13.9799912 10.0303407,13.9799912 C10.5937413,13.9799912 10.8269859,14.3636286 10.8269859,14.9440742 L10.8269859,17.7570457 L11.9926612,17.7570457 L11.9926612,15.1996477 C11.9926612,14.5898194 12.2647799,13.9799912 12.9929848,13.9799912 C13.6828631,13.9799912 13.8575228,14.4916925 13.8575228,15.0815628 L13.8575228,17.7570457 L15.0231981,17.7570457 L15.0231981,14.9440742 C15.0231981,13.81312 14.5862752,12.9177812 13.3428517,12.9177812" id="Fill-20" fill="#EC0000"></path>
                        <g id="Group-24" transform="translate(15.686785, 12.885793)">
                            <mask id="mask-4" fill="white">
                                <use xlink:href="#path-3"></use>
                            </mask>
                            <g id="Clip-23"></g>
                            <path d="M1.50306934,1.4780574 C1.50306934,1.12380262 1.87209948,0.976335056 2.18309225,0.976335056 C2.58114109,0.976335056 2.87297057,1.14376064 3.09635974,1.45809939 L3.87329414,0.750144208 C3.49440858,0.229018234 2.83409648,0.0322100203 2.21211094,0.0322100203 C1.26982476,0.0322100203 0.337393982,0.503995344 0.337393982,1.55678069 C0.337393982,3.35688286 2.85325976,2.58960802 2.85325976,3.56311569 C2.85325976,3.93732849 2.41633683,4.10419968 2.07632537,4.10419968 C1.58081753,4.10419968 1.26982476,3.8586052 0.968687398,3.52375405 L0.191753003,4.26164625 C0.667550035,4.80273024 1.28953557,4.98955945 2.00843258,4.98955945 C2.96002665,4.98955945 4.01893512,4.59594302 4.01893512,3.47496779 C4.01893512,1.63550397 1.50306934,2.32405553 1.50306934,1.4780574" id="Fill-22" fill="#EC0000" mask="url(#mask-4)"></path>
                        </g>
                        <g id="Group-27" transform="translate(19.774598, 11.518658)">
                            <mask id="mask-6" fill="white">
                                <use xlink:href="#path-5"></use>
                            </mask>
                            <g id="Clip-26"></g>
                            <path d="M2.41818777,0.149917641 L1.25251242,0.149917641 L1.25251242,1.51704174 L0.290515426,1.51704174 L0.290515426,2.52048643 L1.25251242,2.52048643 L1.25251242,4.684268 C1.25251242,5.79581862 1.54379438,6.35686063 2.77736252,6.35686063 C3.04948119,6.35686063 3.45738543,6.31749898 3.70048541,6.19941405 L3.70048541,5.20594837 C3.55484443,5.31405429 3.27287036,5.35341593 3.069192,5.35341593 C2.55397335,5.35341593 2.41818777,5.0584808 2.41818777,4.58614109 L2.41818777,2.52048643 L3.70048541,2.52048643 L3.70048541,1.51704174 L2.41818777,1.51704174 L2.41818777,0.149917641 Z" id="Fill-25" fill="#EC0000" mask="url(#mask-6)"></path>
                        </g>
                        <g id="Group-30" transform="translate(24.154778, 12.885793)">
                            <mask id="mask-8" fill="white">
                                <use xlink:href="#path-7"></use>
                            </mask>
                            <g id="Clip-29"></g>
                            <path d="M1.16594911,2.03854502 C1.25355271,1.35997248 1.68062024,0.917015398 2.37049856,0.917015398 C3.09925098,0.917015398 3.54602932,1.34999347 3.55588473,2.03854502 L1.16594911,2.03854502 Z M2.53585035,0.0322100203 C1.12707502,0.0322100203 0.000273761238,1.02567571 0.000273761238,2.51088473 C0.000273761238,3.99609376 1.12707502,4.98955945 2.53585035,4.98955945 C3.27391065,4.98955945 3.96378897,4.72400695 4.50802631,4.04543441 L3.67250701,3.40566912 C3.38067753,3.76990291 3.00179198,4.04543441 2.41922806,4.04543441 C1.76822384,4.04543441 1.24369731,3.62243535 1.16594911,2.92390479 L4.72156008,2.92390479 L4.72156008,2.59903264 C4.72156008,0.95693143 3.83731128,0.0322100203 2.53585035,0.0322100203 L2.53585035,0.0322100203 Z" id="Fill-28" fill="#EC0000" mask="url(#mask-8)"></path>
                        </g>
                        <path d="M31.1495419,13.7834047 L31.1298311,13.7834047 L31.1298311,13.0360879 L29.9641557,13.0360879 L29.9641557,17.7572675 L31.1298311,17.7572675 L31.1298311,15.2292521 C31.1298311,14.9736786 31.2853275,14.0389782 32.38311,14.0389782 C32.5676251,14.0389782 32.7521402,14.0783398 32.9465107,14.1276805 L32.9465107,12.9867472 C32.8107251,12.9473856 32.6749395,12.918003 32.528751,12.918003 C31.9171684,12.918003 31.4019498,13.2423207 31.1495419,13.7834047" id="Fill-31" fill="#EC0000"></path>
                        <path d="M35.8804099,16.8130315 C35.0257273,16.8130315 34.5105086,16.134459 34.5105086,15.3965668 C34.5105086,14.659229 35.0257273,13.980102 35.8804099,13.980102 C36.7350925,13.980102 37.2503111,14.659229 37.2503111,15.3965668 C37.2503111,16.134459 36.7350925,16.8130315 35.8804099,16.8130315 L35.8804099,16.8130315 Z M37.211437,13.6358263 L37.1818708,13.6358263 C36.9393183,13.3309121 36.4728292,12.9178921 35.5984358,12.9178921 C34.2679562,12.9178921 33.3448333,14.0000601 33.3448333,15.3965668 C33.3448333,16.7936279 34.2093713,17.8752415 35.6471653,17.8752415 C36.2981695,17.8752415 36.9102996,17.619668 37.2503111,17.0492014 L37.2694744,17.0492014 L37.2694744,17.7571566 L38.3771124,17.7571566 L38.3771124,10.3211324 L37.211437,10.3211324 L37.211437,13.6358263 Z" id="Fill-33" fill="#EC0000"></path>
                        <g id="Group-37" transform="translate(39.230251, 12.885793)">
                            <mask id="mask-10" fill="white">
                                <use xlink:href="#path-9"></use>
                            </mask>
                            <g id="Clip-36"></g>
                            <path d="M3.31427369,3.02225345 C3.31427369,3.68142237 2.93538813,4.10442144 2.13874293,4.10442144 C1.75985738,4.10442144 1.32293444,3.91759223 1.32293444,3.48461416 C1.32293444,2.80604161 2.43002489,2.75670096 3.07172123,2.75670096 L3.31427369,2.75670096 L3.31427369,3.02225345 Z M2.43988029,0.0318773867 C1.70181999,0.0318773867 0.973067577,0.258068235 0.458396449,0.789173217 L1.06997906,1.40898049 C1.38097182,1.11404537 1.82775016,0.917237153 2.3134026,0.917237153 C2.93538813,0.917237153 3.38216648,1.22215129 3.38216648,1.80259692 L3.38216648,1.93010647 L3.09088452,1.93010647 C1.92520916,1.93010647 0.157259087,2.03876678 0.157259087,3.57331645 C0.157259087,4.50746248 0.992778387,4.9897812 1.85731638,4.9897812 C2.47875439,4.9897812 3.02299173,4.75361135 3.35314778,4.22250636 L3.38216648,4.22250636 L3.38216648,4.87169627 L4.43176706,4.87169627 L4.43176706,2.1568517 C4.43176706,1.48770378 4.43176706,0.0318773867 2.43988029,0.0318773867 L2.43988029,0.0318773867 Z" id="Fill-35" fill="#EC0000" mask="url(#mask-10)"></path>
                        </g>
                        <g id="Group-40" transform="translate(44.705476, 12.885793)">
                            <mask id="mask-12" fill="white">
                                <use xlink:href="#path-11"></use>
                            </mask>
                            <g id="Clip-39"></g>
                            <path d="M5.70782295,0.0319882646 C5.00863675,0.0319882646 4.5131289,0.307519764 4.17311745,0.907369023 C3.93001747,0.317498772 3.43450962,0.0319882646 2.71561261,0.0319882646 C1.93867822,0.0319882646 1.49189988,0.445008318 1.28767399,0.887965396 L1.26851071,0.887965396 L1.26851071,0.150073193 L0.160872735,0.150073193 L0.160872735,4.87125276 L1.32654809,4.87125276 L1.32654809,2.29445114 C1.32654809,1.66466485 1.62768545,1.09419823 2.39531196,1.09419823 C2.95871259,1.09419823 3.19195717,1.47783565 3.19195717,2.05828128 L3.19195717,4.87125276 L4.35763252,4.87125276 L4.35763252,2.31385476 C4.35763252,1.7040265 4.62975119,1.09419823 5.35795609,1.09419823 C6.04783441,1.09419823 6.22249408,1.60589958 6.22249408,2.19576984 L6.22249408,4.87125276 L7.38871695,4.87125276 L7.38871695,2.05828128 C7.38871695,0.927327039 6.95124649,0.0319882646 5.70782295,0.0319882646" id="Fill-38" fill="#EC0000" mask="url(#mask-12)"></path>
                        </g>
                    </g>
                </g>
                <g id="Group-4">
                    <polygon id="Fill-41" fill="#EC0000" points="0 27.9756161 2.52958554 25.3949365 0 22.8142569 1.68669312 21.0928829 4.21718695 23.6744835 6.74677249 21.0928829 8.43346561 22.8142569 5.90388007 25.3949365 8.43346561 27.9756161 6.74677249 29.6960692 4.21718695 27.1153896 1.68669312 29.6960692"></polygon>
                    <g id="Group-45" transform="translate(0.000000, 0.224008)">
                        <mask id="mask-14" fill="white">
                            <use xlink:href="#path-13"></use>
                        </mask>
                        <g id="Clip-44"></g>
                        <polygon id="Fill-43" fill="#EC0000" mask="url(#mask-14)" points="0.000272486774 7.08775082 2.53076631 4.50707124 0.000272486774 1.92547064 1.68696561 0.205017586 4.21745944 2.78569717 6.74704497 0.205017586 8.4337381 1.92547064 5.90415256 4.50707124 8.4337381 7.08775082 6.74704497 8.80820387 4.21745944 6.22752429 1.68696561 8.80820387"></polygon>
                    </g>
                    <polygon id="Fill-46" fill="#EC0000" points="0.000272486774 17.6525294 2.53076631 15.0718498 0.000272486774 12.4902492 1.68696561 10.7697961 4.21745944 13.3513967 6.74704497 10.7697961 8.4337381 12.4902492 5.90415256 15.0718498 8.4337381 17.6525294 6.74704497 19.3729824 4.21745944 16.7923028 1.68696561 19.3729824"></polygon>
                </g>
            </g>
        </g>
    </g>
</svg>
