<?xml version="1.0" encoding="UTF-8"?>
<svg viewBox="0 0 40 40" version="1.1" xmlns="http://www.w3.org/2000/svg" xmlns:xlink="http://www.w3.org/1999/xlink">
    <!-- Generator: Sketch 49.1 (51147) - http://www.bohemiancoding.com/sketch -->
    <title>icon/zoom-in</title>
    <desc>Created with Sketch.</desc>
    <defs></defs>
    <g id="icon/zoom-in" stroke="none" stroke-width="1" fill="none" fill-rule="evenodd" opacity="0.8">
        <path d="M20.5761317,15.9670782 L15.9670782,15.9670782 L15.9670782,20.5761317 L13.7174211,20.5761317 L13.7174211,15.9670782 L9.10836763,15.9670782 L9.10836763,13.7174211 L13.7174211,13.7174211 L13.7174211,9.10836763 L15.9670782,9.10836763 L15.9670782,13.7174211 L20.5761317,13.7174211 L20.5761317,15.9670782 Z M14.9245542,25.1851852 C16.7901328,25.1851852 18.5093657,24.7187975 20.0823045,23.7860082 C21.6552433,22.8532189 22.8989438,21.6003737 23.8134431,20.0274348 C24.7279424,18.454496 25.1851852,16.7352631 25.1851852,14.8696845 C25.1851852,13.0041059 24.7279424,11.284873 23.8134431,9.71193416 C22.8989438,8.13899534 21.6552433,6.89529492 20.0823045,5.98079561 C18.5093657,5.0662963 16.7901328,4.6090535 14.9245542,4.6090535 C13.0589756,4.6090535 11.3397427,5.0662963 9.76680384,5.98079561 C8.19386502,6.89529492 6.94101975,8.13899534 6.00823045,9.71193416 C5.07544115,11.284873 4.6090535,13.0041059 4.6090535,14.8696845 C4.6090535,16.7352631 5.07544115,18.454496 6.00823045,20.0274348 C6.94101975,21.6003737 8.19386502,22.8532189 9.76680384,23.7860082 C11.3397427,24.7187975 13.0589756,25.1851852 14.9245542,25.1851852 Z M28.6419753,25.1851852 L40,36.5432099 L36.5432099,40 L25.1851852,28.5871056 L25.1851852,26.776406 L24.526749,26.1728395 C23.2464499,27.3068187 21.7741281,28.17558 20.1097394,28.7791495 C18.4453506,29.3827191 16.7169728,29.6844993 14.9245542,29.6844993 C12.2176362,29.6844993 9.72109053,29.0260697 7.43484225,27.7091907 C5.14859396,26.3923117 3.34705734,24.6182096 2.03017833,22.3868313 C0.676719342,20.082293 0,17.5766025 0,14.8696845 C0,12.1627665 0.667574486,9.66622085 2.00274348,7.37997257 C3.33791248,5.09372428 5.14859396,3.29218765 7.43484225,1.97530864 C9.72109053,0.65842963 12.2176362,0 14.9245542,0 C17.6314722,0 20.1371627,0.676719342 22.441701,2.03017833 C24.6730793,3.34705734 26.4380365,5.13944911 27.7366255,7.40740741 C29.0352145,9.67536571 29.6844993,12.1627665 29.6844993,14.8696845 C29.6844993,16.6986831 29.3827191,18.4453506 28.7791495,20.1097394 C28.17558,21.7741281 27.3068187,23.2464499 26.1728395,24.526749 L26.776406,25.1851852 L28.6419753,25.1851852 Z" id="zoom_in---material" fill="#4A4A4A"></path>
    </g>
</svg>
