<?xml version="1.0" encoding="UTF-8"?>
<svg version="1.1" viewBox="0 0 268 165" xmlns="http://www.w3.org/2000/svg" xmlns:xlink="http://www.w3.org/1999/xlink">
<title>Envelop</title>
<desc>Created with Sketch.</desc>
<defs>
<rect id="h" width="260" height="157"/>
<filter id="p" x="-2.7%" y="-3.2%" width="105.4%" height="108.9%">
<feOffset dx="0" dy="2" in="SourceAlpha" result="shadowOffsetOuter1"/>
<feGaussianBlur in="shadowOffsetOuter1" result="shadowBlurOuter1" stdDeviation="2"/>
<feComposite in="shadowBlurOuter1" in2="SourceAlpha" operator="out" result="shadowBlurOuter1"/>
<feColorMatrix in="shadowBlurOuter1" values="0 0 0 0 0   0 0 0 0 0   0 0 0 0 0  0 0 0 0.5 0"/>
</filter>
<polygon id="d" points="5.9782 0.10818 0.18945 0.10818 0.18945 6.5115 5.9782 6.5115"/>
<polygon id="c" points="0.1713 4.3658 3.5902 4.3658 3.5902 0.028184 0.1713 0.028184"/>
<polygon id="b" points="0.25953 5.5621 3.3058 5.5621 3.3058 0.13118 0.25953 0.13118"/>
<polygon id="a" points="2.4456e-4 4.3658 4.2179 4.3658 4.2179 0.028184 2.4456e-4 0.028184"/>
<polygon id="g" points="0.14048 4.3658 3.959 4.3658 3.959 0.027893 0.14048 0.027893"/>
<polygon id="f" points="6.6002 4.2623 6.6002 0.02799 0.14371 0.02799 0.14371 4.2623"/>
<polygon id="e" points="12.557 0.29952 4.057e-4 0.29952 4.057e-4 12.845 12.557 12.845"/>
</defs>
<g fill="none" fill-rule="evenodd">
<g transform="translate(-787 -213)">
<g transform="translate(791 215)">
<use fill="black" filter="url(#p)" xlink:href="#h"/>
<rect x=".5" y=".5" width="259" height="156" fill="#fff" fill-rule="evenodd" stroke="#979797" stroke-linejoin="square"/>
<g transform="translate(8 13)">
<g transform="translate(19.653 .875)">
<g transform="translate(.31816 .11798)">
<mask id="k" fill="white">
<use xlink:href="#d"/>
</mask>
<path d="m3.4352 6.5115c0.94596 0 1.7965-0.20665 2.5429-0.60248v-3.1157h-2.3522v0.98134h1.2585v1.4373c-0.382 0.2149-0.88531 0.31822-1.4405 0.31822-1.2673 0-2.1091-0.96388-2.1091-2.2634 0-1.2137 0.84178-2.1776 2.1091-2.1776 0.6158 0 1.215 0.21538 1.6053 0.59375l0.80705-0.80865c-0.64221-0.56804-1.484-0.76644-2.4211-0.76644-1.8919 0-3.2458 1.2738-3.2458 3.2278 0 1.902 1.3539 3.1759 3.2458 3.1759" fill="#EC0000" mask="url(#k)"/>
</g>
<path d="m9.403 3.0147c0.65102 0 1.0501 0.37886 1.0589 0.98134h-2.135c0.078259-0.59424 0.45977-0.98134 1.0761-0.98134m0.14771 3.563c0.65933 0 1.2756-0.23236 1.7613-0.82611l-0.74591-0.55931c-0.2607 0.31822-0.59917 0.55931-1.1196 0.55931-0.58156 0-1.0501-0.37012-1.1196-0.98134h3.1763v-0.28378c0-1.4373-0.78993-2.2465-1.9526-2.2465-1.2585 0-2.2651 0.86928-2.2651 2.1688s1.0066 2.1688 2.2651 2.1688" fill="#EC0000"/>
<path d="m18.888 6.4746v-2.4614c0-0.99007-0.39032-1.773-1.5011-1.773-0.6251 0-1.0677 0.2406-1.3715 0.76596-0.21668-0.51662-0.65933-0.76596-1.3015-0.76596-0.69455 0-1.0937 0.36139-1.2756 0.74849h-0.017608v-0.64517h-0.98949v4.131h1.0418v-2.2552c0-0.55058 0.26902-1.0497 0.95427-1.0497 0.5033 0 0.71167 0.33568 0.71167 0.84357v2.4614h1.0413v-2.2377c0-0.5336 0.24309-1.0672 0.89411-1.0672 0.61629 0 0.77232 0.44725 0.77232 0.96388v2.341h1.0413z" fill="#EC0000"/>
<path d="m21.935 3.0147c0.65102 0 1.0501 0.37886 1.0589 0.98134h-2.135c0.078259-0.59424 0.45977-0.98134 1.0761-0.98134m0.14771 3.563c0.65933 0 1.2756-0.23236 1.7613-0.82611l-0.7464-0.55931c-0.26021 0.31822-0.59868 0.55931-1.1191 0.55931-0.58156 0-1.0501-0.37012-1.1196-0.98134h3.1763v-0.28378c0-1.4373-0.78993-2.2465-1.9526-2.2465-1.2585 0-2.2651 0.86928-2.2651 2.1688s1.0066 2.1688 2.2651 2.1688" fill="#EC0000"/>
<path d="m26.916 3.0147c0.65102 0 1.0501 0.37886 1.0589 0.98134h-2.135c0.078259-0.59424 0.45977-0.98134 1.0761-0.98134m0.14771 3.563c0.65933 0 1.2756-0.23236 1.7613-0.82611l-0.74591-0.55931c-0.2607 0.31822-0.59917 0.55931-1.1196 0.55931-0.58156 0-1.0501-0.37012-1.1196-0.98134h3.1763v-0.28378c0-1.4373-0.78993-2.2465-1.9526-2.2465-1.2585 0-2.2651 0.86928-2.2651 2.1688s1.0066 2.1688 2.2651 2.1688" fill="#EC0000"/>
<path d="m31.029 4.2196c0-0.55106 0.26902-1.0502 0.95476-1.0502 0.72879 0 0.76352 0.75771 0.76352 1.2137v2.0917h1.0413v-2.6078c0-0.84357-0.39912-1.627-1.5187-1.627-0.69406 0-1.0849 0.35315-1.2756 0.76596h-0.017119v-0.66263h-0.98949v4.1315h1.0413v-2.2552z" fill="#EC0000"/>
<path d="m35.342 5.1147c0 0.97261 0.26021 1.463 1.3627 1.463 0.2426 0 0.607-0.034441 0.82417-0.13777v-0.86928c-0.13011 0.095078-0.382 0.12952-0.56396 0.12952-0.46026 0-0.58156-0.25855-0.58156-0.67137v-1.8074h1.1455v-0.87801h-1.1455v-1.1962h-1.0413v1.1962h-0.85938v0.87801h0.85938v1.8933z" fill="#EC0000"/>
<path d="m40.254 3.0147c0.65102 0 1.0501 0.37886 1.0589 0.98134h-2.135c0.078259-0.59424 0.45977-0.98134 1.0761-0.98134m0.14771 3.563c0.65933 0 1.2756-0.23236 1.7613-0.82611l-0.74591-0.55931c-0.2607 0.31822-0.59917 0.55931-1.1196 0.55931-0.58156 0-1.0501-0.37012-1.1196-0.98134h3.1763v-0.28378c0-1.4373-0.78993-2.2465-1.9526-2.2465-1.2585 0-2.2651 0.86928-2.2651 2.1688s1.0066 2.1688 2.2651 2.1688" fill="#EC0000"/>
<path d="m2.3041 13.214l0.96308-2.4788 0.94596 2.4788h-1.909zm0.52091-3.7696l-2.673 6.0932h1.2238l0.55515-1.3942h2.6642l0.57276 1.3942h1.2497l-2.6471-6.0932h-0.94547z" fill="#EC0000"/>
<path d="m11.92 11.303c-0.62461 0-1.0673 0.24109-1.371 0.76596-0.21717-0.51614-0.65982-0.76596-1.302-0.76596-0.69406 0-1.0932 0.36139-1.2756 0.74898h-0.017119v-0.64566h-0.98949v4.131h1.0413v-2.2547c0-0.55106 0.26902-1.0502 0.95476-1.0502 0.5033 0 0.71167 0.33568 0.71167 0.84357v2.4614h1.0413v-2.2377c0-0.5336 0.24309-1.0672 0.89362-1.0672 0.61629 0 0.77232 0.44774 0.77232 0.96388v2.341h1.0413v-2.4614c0-0.98958-0.39032-1.773-1.5011-1.773" fill="#EC0000"/>
<g transform="translate(14.014 11.275)">
<mask id="j" fill="white">
<use xlink:href="#c"/>
</mask>
<path d="m1.3427 1.2933c0-0.30997 0.32967-0.43901 0.60749-0.43901 0.35559 0 0.61629 0.1465 0.81585 0.42154l0.69406-0.61946c-0.33847-0.45599-0.92835-0.62819-1.484-0.62819-0.84178 0-1.6747 0.41281-1.6747 1.334 0 1.5751 2.2475 0.90372 2.2475 1.7555 0 0.32744-0.39032 0.47345-0.69406 0.47345-0.44265 0-0.72047-0.2149-0.98949-0.50789l-0.69406 0.64566c0.42505 0.47345 0.98069 0.63692 1.6229 0.63692 0.85009 0 1.796-0.34441 1.796-1.3253 0-1.6095-2.2475-1.007-2.2475-1.7473" fill="#EC0000" mask="url(#j)"/>
</g>
<g transform="translate(17.665 10.079)">
<mask id="i" fill="white">
<use xlink:href="#b"/>
</mask>
<path d="m2.1602 0.13118h-1.0413v1.1962h-0.85938v0.87801h0.85938v1.8933c0 0.97261 0.26021 1.4635 1.3622 1.4635 0.24309 0 0.60749-0.034441 0.82466-0.13777v-0.86928c-0.13011 0.094593-0.382 0.12903-0.56396 0.12903-0.46026 0-0.58156-0.25807-0.58156-0.67137v-1.8074h1.1455v-0.87801h-1.1455v-1.1962z" fill="#EC0000" mask="url(#i)"/>
</g>
<g transform="translate(21.578 11.275)">
<mask id="o" fill="white">
<use xlink:href="#a"/>
</mask>
<path d="m1.0416 1.7837c0.078259-0.59375 0.45977-0.98134 1.0761-0.98134 0.65102 0 1.0501 0.37886 1.0589 0.98134h-2.135zm1.2238-1.7555c-1.2585 0-2.2651 0.86928-2.2651 2.1688 0 1.2996 1.0066 2.1688 2.2651 2.1688 0.65933 0 1.2756-0.23236 1.7618-0.82611l-0.7464-0.55979c-0.2607 0.3187-0.59917 0.55979-1.1196 0.55979-0.58156 0-1.0501-0.37012-1.1196-0.98134h3.1763v-0.28426c0-1.4368-0.78993-2.246-1.9526-2.246z" fill="#EC0000" mask="url(#o)"/>
</g>
<path d="m27.827 12.06h-0.017608v-0.6539h-1.0413v4.131h1.0413v-2.212c0-0.22363 0.13891-1.0415 1.1196-1.0415 0.16483 0 0.32967 0.034442 0.5033 0.077614v-0.99832c-0.1213-0.034441-0.2426-0.060151-0.3732-0.060151-0.54635 0-1.0066 0.28378-1.2321 0.75723" fill="#EC0000"/>
<path d="m32.053 14.711c-0.76352 0-1.2238-0.59375-1.2238-1.2394 0-0.64517 0.46026-1.2394 1.2238-1.2394 0.76352 0 1.2238 0.59424 1.2238 1.2394 0 0.64566-0.46026 1.2394-1.2238 1.2394zm1.1891-2.7801h-0.026412c-0.21668-0.2668-0.63341-0.62819-1.4145-0.62819-1.1886 0-2.0132 0.9469-2.0132 2.1688 0 1.2224 0.77232 2.1688 2.0567 2.1688 0.58156 0 1.1284-0.22363 1.4321-0.72279h0.017119v0.61946h0.98949v-6.5065h-1.0413v2.9004z" fill="#EC0000"/>
<g transform="translate(35.046 11.275)">
<mask id="n" fill="white">
<use xlink:href="#g"/>
</mask>
<path d="m2.9608 2.6445c0 0.57677-0.33847 0.9469-1.0501 0.9469-0.33847 0-0.72879-0.16348-0.72879-0.54233 0-0.59375 0.989-0.63692 1.5622-0.63692h0.21668v0.23236zm-0.78112-2.6166c-0.65933 0-1.3104 0.19792-1.7701 0.66263l0.54635 0.54233c0.27782-0.25807 0.67694-0.43028 1.1108-0.43028 0.55564 0 0.95476 0.2668 0.95476 0.77469v0.11157h-0.26021c-1.0413 0-2.6207 0.095078-2.6207 1.4378 0 0.81738 0.7464 1.2394 1.5187 1.2394 0.55515 0 1.0413-0.20665 1.3363-0.67137h0.025923v0.56804h0.93764v-2.3755c0-0.5855 0-1.8594-1.7794-1.8594z" fill="#EC0000" mask="url(#n)"/>
</g>
<g transform="translate(39.937 11.275)">
<mask id="m" fill="white">
<use xlink:href="#f"/>
</mask>
<path d="m5.099 0.02799c-0.62461 0-1.0673 0.24109-1.371 0.76596-0.21717-0.51614-0.65982-0.76596-1.302-0.76596-0.69406 0-1.0932 0.36139-1.2756 0.74898h-0.017119v-0.64566h-0.98949v4.131h1.0413v-2.2547c0-0.55106 0.26902-1.0502 0.95476-1.0502 0.5033 0 0.71167 0.33568 0.71167 0.84357v2.4614h1.0413v-2.2377c0-0.5336 0.24309-1.0672 0.89362-1.0672 0.61629 0 0.77232 0.44774 0.77232 0.96388v2.341h1.0418v-2.4614c0-0.98958-0.39081-1.773-1.5016-1.773" fill="#EC0000" mask="url(#m)"/>
</g>
</g>
<polygon points="0 39.55 3.7513 35.876 0 32.201 2.5013 29.75 6.254 33.426 10.005 29.75 12.507 32.201 8.7553 35.876 12.507 39.55 10.005 42 6.254 38.325 2.5013 42" fill="#EC0000"/>
<mask id="l" fill="white">
<use xlink:href="#e"/>
</mask>
<polygon points="4.057e-4 10.336 3.768 6.5728 4.057e-4 2.808 2.5117 0.29898 6.2793 4.0625 10.046 0.29898 12.557 2.808 8.7906 6.5728 12.557 10.336 10.046 12.845 6.2793 9.0818 2.5117 12.845" fill="#EC0000" mask="url(#l)"/>
<polygon points="0 25.55 3.7527 21.876 0 18.2 2.5013 15.75 6.254 19.426 10.005 15.75 12.507 18.2 8.7553 21.876 12.507 25.55 10.005 28 6.254 24.325 2.5013 28" fill="#EC0000"/>
</g>
<path d="m27.711 55.628h2.142c0.306 0 0.6015 0.03 0.8865 0.09s0.5355 0.1605 0.7515 0.3015 0.3885 0.33 0.5175 0.567 0.1935 0.5325 0.1935 0.8865c0 0.402-0.068999 0.726-0.207 0.972s-0.324 0.4365-0.558 0.5715-0.5055 0.2265-0.8145 0.2745-0.6315 0.072-0.9675 0.072h-0.81v2.637h-1.134v-6.372zm1.818 2.763c0.162 0 0.33-0.0059999 0.504-0.018s0.3345-0.048 0.4815-0.108 0.267-0.15 0.36-0.27 0.1395-0.288 0.1395-0.504c0-0.198-0.042-0.3555-0.126-0.4725s-0.192-0.207-0.324-0.27-0.279-0.1035-0.441-0.1215-0.318-0.027-0.468-0.027h-0.81v1.791h0.684zm3.366 1.449c0-0.342 0.061499-0.6525 0.1845-0.9315s0.2895-0.5175 0.4995-0.7155 0.459-0.351 0.747-0.459 0.594-0.162 0.918-0.162 0.63 0.054 0.918 0.162 0.537 0.261 0.747 0.459c0.21 0.198 0.3765 0.4365 0.4995 0.7155s0.1845 0.5895 0.1845 0.9315-0.061499 0.6525-0.1845 0.9315-0.2895 0.5175-0.4995 0.7155c-0.21 0.198-0.459 0.351-0.747 0.459s-0.594 0.162-0.918 0.162-0.63-0.054-0.918-0.162-0.537-0.261-0.747-0.459-0.3765-0.4365-0.4995-0.7155-0.1845-0.5895-0.1845-0.9315zm1.08 0c0 0.168 0.0285 0.33 0.0855 0.486s0.141 0.294 0.252 0.414 0.2445 0.216 0.4005 0.288 0.333 0.108 0.531 0.108 0.375-0.036 0.531-0.108 0.2895-0.168 0.4005-0.288 0.195-0.258 0.252-0.414 0.0855-0.318 0.0855-0.486-0.0285-0.33-0.0855-0.486-0.141-0.294-0.252-0.414-0.2445-0.216-0.4005-0.288-0.333-0.108-0.531-0.108-0.375 0.036-0.531 0.108-0.2895 0.168-0.4005 0.288-0.195 0.258-0.252 0.414-0.0855 0.318-0.0855 0.486zm6.93-0.963c-0.21-0.294-0.492-0.441-0.846-0.441-0.144 0-0.285 0.036-0.423 0.108s-0.207 0.189-0.207 0.351c0 0.132 0.056999 0.228 0.171 0.288s0.258 0.111 0.432 0.153 0.3615 0.0855 0.5625 0.1305 0.3885 0.114 0.5625 0.207 0.318 0.2205 0.432 0.3825 0.171 0.384 0.171 0.666c0 0.258-0.055499 0.4755-0.1665 0.6525s-0.255 0.3195-0.432 0.4275-0.3765 0.186-0.5985 0.234-0.444 0.072-0.666 0.072c-0.336 0-0.645-0.048-0.927-0.144s-0.534-0.27-0.756-0.522l0.72-0.675c0.138 0.156 0.2865 0.2835 0.4455 0.3825s0.3525 0.1485 0.5805 0.1485c0.078 0 0.159-0.0089999 0.243-0.027s0.162-0.048 0.234-0.09 0.1305-0.0945 0.1755-0.1575 0.0675-0.1365 0.0675-0.2205c0-0.15-0.056999-0.261-0.171-0.333s-0.258-0.1305-0.432-0.1755-0.3615-0.087-0.5625-0.126-0.3885-0.102-0.5625-0.189-0.318-0.2085-0.432-0.3645-0.171-0.372-0.171-0.648c0-0.24 0.0495-0.4485 0.1485-0.6255s0.2295-0.3225 0.3915-0.4365 0.348-0.198 0.558-0.252c0.21-0.054 0.423-0.081 0.639-0.081 0.288 0 0.573 0.0495 0.855 0.1485s0.51 0.2685 0.684 0.5085l-0.72 0.648zm1.188-0.279v-0.918h0.891v-1.251h1.08v1.251h1.188v0.918h-1.188v1.89c0 0.216 0.0405 0.387 0.1215 0.513s0.2415 0.189 0.4815 0.189c0.096 0 0.201-0.0105 0.315-0.0315s0.204-0.0555 0.27-0.1035v0.909c-0.114 0.054-0.2535 0.0915-0.4185 0.1125s-0.3105 0.0315-0.4365 0.0315c-0.288 0-0.5235-0.0315-0.7065-0.0945s-0.327-0.159-0.432-0.288-0.177-0.2895-0.216-0.4815-0.0585-0.414-0.0585-0.666v-1.98h-0.891zm6.084-0.918h1.179l1.152 3.024h0.018l1.161-3.024h1.107l-1.701 4.32h-1.152l-1.764-4.32zm7.956 3.726h-0.027c-0.156 0.246-0.354 0.4245-0.594 0.5355s-0.504 0.1665-0.792 0.1665c-0.198 0-0.3915-0.027-0.5805-0.081s-0.357-0.135-0.504-0.243-0.2655-0.243-0.3555-0.405c-0.09-0.162-0.135-0.351-0.135-0.567 0-0.234 0.042-0.4335 0.126-0.5985s0.1965-0.303 0.3375-0.414 0.3045-0.1995 0.4905-0.2655 0.3795-0.1155 0.5805-0.1485 0.4035-0.054 0.6075-0.063 0.396-0.0135 0.576-0.0135h0.27v-0.117c0-0.27-0.092999-0.4725-0.279-0.6075s-0.423-0.2025-0.711-0.2025c-0.228 0-0.441 0.0405-0.639 0.1215s-0.369 0.1905-0.513 0.3285l-0.567-0.567c0.24-0.246 0.5205-0.423 0.8415-0.531s0.6525-0.162 0.9945-0.162c0.306 0 0.564 0.0345 0.774 0.1035 0.21 0.069 0.384 0.1575 0.522 0.2655s0.2445 0.2325 0.3195 0.3735 0.129 0.2835 0.162 0.4275 0.0525 0.2835 0.0585 0.4185 9e-3 0.2535 9e-3 0.3555v2.484h-0.972v-0.594zm-0.063-1.341h-0.225c-0.15 0-0.318 0.0059999-0.504 0.018s-0.3615 0.0405-0.5265 0.0855-0.3045 0.111-0.4185 0.198-0.171 0.2085-0.171 0.3645c0 0.102 0.0225 0.1875 0.0675 0.2565s0.1035 0.1275 0.1755 0.1755 0.153 0.0825 0.243 0.1035c0.09 0.021 0.18 0.0315 0.27 0.0315 0.372 0 0.6465-0.088499 0.8235-0.2655s0.2655-0.4185 0.2655-0.7245v-0.243zm2.196-2.385h1.026v0.693h0.018c0.102-0.216 0.258-0.4035 0.468-0.5625 0.21-0.159 0.495-0.2385 0.855-0.2385 0.288 0 0.5325 0.048 0.7335 0.144s0.3645 0.222 0.4905 0.378 0.216 0.336 0.27 0.54 0.081 0.417 0.081 0.639v2.727h-1.08v-2.187c0-0.12-0.0059999-0.2535-0.018-0.4005s-0.0435-0.285-0.0945-0.414-0.1305-0.237-0.2385-0.324-0.255-0.1305-0.441-0.1305c-0.18 0-0.3315 0.03-0.4545 0.09s-0.225 0.141-0.306 0.243-0.1395 0.219-0.1755 0.351-0.054 0.27-0.054 0.414v2.358h-1.08v-4.32zm11.25 3.672h-0.018c-0.156 0.264-0.366 0.456-0.63 0.576s-0.549 0.18-0.855 0.18c-0.336 0-0.6345-0.058499-0.8955-0.1755s-0.4845-0.2775-0.6705-0.4815-0.327-0.444-0.423-0.72-0.144-0.573-0.144-0.891 0.051-0.615 0.153-0.891 0.2445-0.516 0.4275-0.72 0.4035-0.3645 0.6615-0.4815 0.54-0.1755 0.846-0.1755c0.204 0 0.384 0.021 0.54 0.063s0.294 0.096 0.414 0.162 0.222 0.1365 0.306 0.2115 0.153 0.1485 0.207 0.2205h0.027v-3.033h1.08v6.804h-1.026v-0.648zm-2.556-1.512c0 0.168 0.0285 0.33 0.0855 0.486s0.141 0.294 0.252 0.414 0.2445 0.216 0.4005 0.288 0.333 0.108 0.531 0.108 0.375-0.036 0.531-0.108 0.2895-0.168 0.4005-0.288 0.195-0.258 0.252-0.414 0.0855-0.318 0.0855-0.486-0.0285-0.33-0.0855-0.486-0.141-0.294-0.252-0.414-0.2445-0.216-0.4005-0.288-0.333-0.108-0.531-0.108-0.375 0.036-0.531 0.108-0.2895 0.168-0.4005 0.288-0.195 0.258-0.252 0.414-0.0855 0.318-0.0855 0.486zm5.67 0.378c0.036 0.324 0.162 0.576 0.378 0.756s0.477 0.27 0.783 0.27c0.27 0 0.4965-0.055499 0.6795-0.1665s0.3435-0.2505 0.4815-0.4185l0.774 0.585c-0.252 0.312-0.534 0.534-0.846 0.666s-0.639 0.198-0.981 0.198c-0.324 0-0.63-0.054-0.918-0.162s-0.537-0.261-0.747-0.459c-0.21-0.198-0.3765-0.4365-0.4995-0.7155s-0.1845-0.5895-0.1845-0.9315 0.061499-0.6525 0.1845-0.9315 0.2895-0.5175 0.4995-0.7155c0.21-0.198 0.459-0.351 0.747-0.459s0.594-0.162 0.918-0.162c0.3 0 0.5745 0.0525 0.8235 0.1575s0.462 0.2565 0.639 0.4545 0.315 0.4425 0.414 0.7335 0.1485 0.6255 0.1485 1.0035v0.297h-3.294zm2.214-0.81c-6e-3 -0.318-0.105-0.5685-0.297-0.7515s-0.459-0.2745-0.801-0.2745c-0.324 0-0.5805 0.092999-0.7695 0.279s-0.3045 0.435-0.3465 0.747h2.214zm4.851-3.78h1.134v2.7h0.054l2.637-2.7h1.53l-2.979 2.943 3.177 3.429h-1.593l-2.763-3.132h-0.063v3.132h-1.134v-6.372zm6.066 2.052h1.08v0.684h0.018c0.12-0.252 0.291-0.447 0.513-0.585s0.477-0.207 0.765-0.207c0.066 0 0.1305 0.0059999 0.1935 0.018s0.1275 0.027 0.1935 0.045v1.044c-0.09-0.024-0.1785-0.0435-0.2655-0.0585s-0.1725-0.0225-0.2565-0.0225c-0.252 0-0.4545 0.0465-0.6075 0.1395s-0.27 0.1995-0.351 0.3195-0.135 0.24-0.162 0.36-0.0405 0.21-0.0405 0.27v2.313h-1.08v-4.32zm4.203 2.538c0.036 0.324 0.162 0.576 0.378 0.756s0.477 0.27 0.783 0.27c0.27 0 0.4965-0.055499 0.6795-0.1665s0.3435-0.2505 0.4815-0.4185l0.774 0.585c-0.252 0.312-0.534 0.534-0.846 0.666s-0.639 0.198-0.981 0.198c-0.324 0-0.63-0.054-0.918-0.162s-0.537-0.261-0.747-0.459c-0.21-0.198-0.3765-0.4365-0.4995-0.7155s-0.1845-0.5895-0.1845-0.9315 0.061499-0.6525 0.1845-0.9315 0.2895-0.5175 0.4995-0.7155c0.21-0.198 0.459-0.351 0.747-0.459s0.594-0.162 0.918-0.162c0.3 0 0.5745 0.0525 0.8235 0.1575s0.462 0.2565 0.639 0.4545 0.315 0.4425 0.414 0.7335 0.1485 0.6255 0.1485 1.0035v0.297h-3.294zm2.214-0.81c-6e-3 -0.318-0.105-0.5685-0.297-0.7515s-0.459-0.2745-0.801-0.2745c-0.324 0-0.5805 0.092999-0.7695 0.279s-0.3045 0.435-0.3465 0.747h2.214zm5.508 1.944h-0.018c-0.156 0.264-0.366 0.456-0.63 0.576s-0.549 0.18-0.855 0.18c-0.336 0-0.6345-0.058499-0.8955-0.1755s-0.4845-0.2775-0.6705-0.4815-0.327-0.444-0.423-0.72-0.144-0.573-0.144-0.891 0.051-0.615 0.153-0.891 0.2445-0.516 0.4275-0.72 0.4035-0.3645 0.6615-0.4815 0.54-0.1755 0.846-0.1755c0.204 0 0.384 0.021 0.54 0.063s0.294 0.096 0.414 0.162 0.222 0.1365 0.306 0.2115 0.153 0.1485 0.207 0.2205h0.027v-3.033h1.08v6.804h-1.026v-0.648zm-2.556-1.512c0 0.168 0.0285 0.33 0.0855 0.486s0.141 0.294 0.252 0.414 0.2445 0.216 0.4005 0.288 0.333 0.108 0.531 0.108 0.375-0.036 0.531-0.108 0.2895-0.168 0.4005-0.288 0.195-0.258 0.252-0.414 0.0855-0.318 0.0855-0.486-0.0285-0.33-0.0855-0.486-0.141-0.294-0.252-0.414-0.2445-0.216-0.4005-0.288-0.333-0.108-0.531-0.108-0.375 0.036-0.531 0.108-0.2895 0.168-0.4005 0.288-0.195 0.258-0.252 0.414-0.0855 0.318-0.0855 0.486zm4.833-2.16h1.08v4.32h-1.08v-4.32zm-0.153-1.467c0-0.174 0.064499-0.3255 0.1935-0.4545 0.129-0.129 0.2925-0.1935 0.4905-0.1935s0.3645 0.061499 0.4995 0.1845 0.2025 0.2775 0.2025 0.4635-0.067499 0.3405-0.2025 0.4635-0.3015 0.1845-0.4995 0.1845-0.3615-0.064499-0.4905-0.1935c-0.129-0.129-0.1935-0.2805-0.1935-0.4545zm3.339 4.005c0.036 0.324 0.162 0.576 0.378 0.756s0.477 0.27 0.783 0.27c0.27 0 0.4965-0.055499 0.6795-0.1665s0.3435-0.2505 0.4815-0.4185l0.774 0.585c-0.252 0.312-0.534 0.534-0.846 0.666s-0.639 0.198-0.981 0.198c-0.324 0-0.63-0.054-0.918-0.162s-0.537-0.261-0.747-0.459-0.3765-0.4365-0.4995-0.7155-0.1845-0.5895-0.1845-0.9315 0.061499-0.6525 0.1845-0.9315 0.2895-0.5175 0.4995-0.7155 0.459-0.351 0.747-0.459 0.594-0.162 0.918-0.162c0.3 0 0.5745 0.0525 0.8235 0.1575s0.462 0.2565 0.639 0.4545 0.315 0.4425 0.414 0.7335 0.1485 0.6255 0.1485 1.0035v0.297h-3.294zm2.214-0.81c-6e-3 -0.318-0.105-0.5685-0.297-0.7515s-0.459-0.2745-0.801-0.2745c-0.324 0-0.5805 0.092999-0.7695 0.279s-0.3045 0.435-0.3465 0.747h2.214zm1.584-0.81v-0.918h0.891v-1.251h1.08v1.251h1.188v0.918h-1.188v1.89c0 0.216 0.0405 0.387 0.1215 0.513s0.2415 0.189 0.4815 0.189c0.096 0 0.201-0.0105 0.315-0.0315s0.204-0.0555 0.27-0.1035v0.909c-0.114 0.054-0.2535 0.0915-0.4185 0.1125s-0.3105 0.0315-0.4365 0.0315c-0.288 0-0.5235-0.0315-0.7065-0.0945s-0.327-0.159-0.432-0.288-0.177-0.2895-0.216-0.4815-0.0585-0.414-0.0585-0.666v-1.98h-0.891zm4.014-3.402h1.08v3.033h0.027c0.054-0.072 0.123-0.1455 0.207-0.2205s0.186-0.1455 0.306-0.2115 0.258-0.12 0.414-0.162 0.336-0.063 0.54-0.063c0.306 0 0.588 0.058499 0.846 0.1755s0.4785 0.2775 0.6615 0.4815 0.3255 0.444 0.4275 0.72 0.153 0.573 0.153 0.891-0.048 0.615-0.144 0.891-0.237 0.516-0.423 0.72-0.411 0.3645-0.675 0.4815-0.561 0.1755-0.891 0.1755c-0.306 0-0.591-0.059999-0.855-0.18s-0.474-0.312-0.63-0.576h-0.018v0.648h-1.026v-6.804zm3.582 4.644c0-0.168-0.0285-0.33-0.0855-0.486s-0.141-0.294-0.252-0.414-0.2445-0.216-0.4005-0.288-0.333-0.108-0.531-0.108-0.375 0.036-0.531 0.108-0.2895 0.168-0.4005 0.288-0.195 0.258-0.252 0.414-0.0855 0.318-0.0855 0.486 0.0285 0.33 0.0855 0.486 0.141 0.294 0.252 0.414 0.2445 0.216 0.4005 0.288 0.333 0.108 0.531 0.108 0.375-0.036 0.531-0.108 0.2895-0.168 0.4005-0.288 0.195-0.258 0.252-0.414 0.0855-0.318 0.0855-0.486zm4.788 1.566h-0.027c-0.156 0.246-0.354 0.4245-0.594 0.5355s-0.504 0.1665-0.792 0.1665c-0.198 0-0.3915-0.027-0.5805-0.081s-0.357-0.135-0.504-0.243-0.2655-0.243-0.3555-0.405-0.135-0.351-0.135-0.567c0-0.234 0.042-0.4335 0.126-0.5985s0.1965-0.303 0.3375-0.414 0.3045-0.1995 0.4905-0.2655 0.3795-0.1155 0.5805-0.1485 0.4035-0.054 0.6075-0.063 0.396-0.0135 0.576-0.0135h0.27v-0.117c0-0.27-0.092999-0.4725-0.279-0.6075s-0.423-0.2025-0.711-0.2025c-0.228 0-0.441 0.0405-0.639 0.1215s-0.369 0.1905-0.513 0.3285l-0.567-0.567c0.24-0.246 0.5205-0.423 0.8415-0.531s0.6525-0.162 0.9945-0.162c0.306 0 0.564 0.0345 0.774 0.1035s0.384 0.1575 0.522 0.2655 0.2445 0.2325 0.3195 0.3735 0.129 0.2835 0.162 0.4275 0.0525 0.2835 0.0585 0.4185 9e-3 0.2535 9e-3 0.3555v2.484h-0.972v-0.594zm-0.063-1.341h-0.225c-0.15 0-0.318 0.0059999-0.504 0.018s-0.3615 0.0405-0.5265 0.0855-0.3045 0.111-0.4185 0.198-0.171 0.2085-0.171 0.3645c0 0.102 0.0225 0.1875 0.0675 0.2565s0.1035 0.1275 0.1755 0.1755 0.153 0.0825 0.243 0.1035 0.18 0.0315 0.27 0.0315c0.372 0 0.6465-0.088499 0.8235-0.2655s0.2655-0.4185 0.2655-0.7245v-0.243zm2.196-2.385h1.026v0.693h0.018c0.102-0.216 0.258-0.4035 0.468-0.5625s0.495-0.2385 0.855-0.2385c0.288 0 0.5325 0.048 0.7335 0.144s0.3645 0.222 0.4905 0.378 0.216 0.336 0.27 0.54 0.081 0.417 0.081 0.639v2.727h-1.08v-2.187c0-0.12-6e-3 -0.2535-0.018-0.4005s-0.0435-0.285-0.0945-0.414-0.1305-0.237-0.2385-0.324-0.255-0.1305-0.441-0.1305c-0.18 0-0.3315 0.03-0.4545 0.09s-0.225 0.141-0.306 0.243-0.1395 0.219-0.1755 0.351-0.054 0.27-0.054 0.414v2.358h-1.08v-4.32zm5.166-2.484h1.08v4.275l1.665-1.791h1.386l-1.854 1.962 1.971 2.358h-1.431l-1.719-2.205h-0.018v2.205h-1.08v-6.804z" fill="#000" fill-rule="nonzero"/>
<rect x="27.5" y="68.5" width="125" height="44" stroke="#979797"/>
<rect x="226.5" y="8.5" width="23" height="29" fill="#F8F8F8" stroke="#CACACA"/>
</g>
</g>
</g>
</svg>
