<?xml version="1.0" encoding="UTF-8"?>
<svg viewBox="0 0 131 163" version="1.1" xmlns="http://www.w3.org/2000/svg" xmlns:xlink="http://www.w3.org/1999/xlink">
    <title>icon/docexcel</title>
    <g id="Quick-guide" stroke="none" stroke-width="1" fill="none" fill-rule="evenodd">
        <path d="M16.4730539,0 L81.9730539,0 L131,48.9783654 L131,146.935096 C131,151.375823 129.365785,155.163446 126.097305,158.298077 C122.828826,161.432708 118.972078,163 114.526946,163 L16.4730539,163 C12.0279219,163 8.17117403,161.432708 4.90269461,158.298077 C1.63421519,155.163446 0,151.375823 0,146.935096 L0.392215569,16.0649038 C0.392215569,11.6241765 1.96106216,7.83655413 5.0988024,4.70192308 C8.23654263,1.56729202 12.0279219,0 16.4730539,0 Z M94.6273131,78.8580382 C96.2609068,76.3111632 94.4351256,72.9683898 91.3921568,73.0002257 L80.2452818,73.0002257 C78.8359068,73.0002257 77.5226256,73.7642882 76.8499693,75.0058898 C67.0804381,93.0887023 65.1265318,96.8135069 65.1265318,96.8135069 C59.8093443,85.7027648 61.7632506,90.5418273 53.4030943,75.0058898 C52.7304381,73.7642882 51.4171568,73.0002257 50.0077818,73.0002257 L38.8609068,73.0002257 C35.8179381,73.0002257 33.9601256,76.3429991 35.6257506,78.8898741 L54.9405943,108.656476 L35.6257506,138.423077 C33.9921568,140.969952 35.8179381,144.312726 38.8609068,144.312726 L50.0398131,144.312726 C51.4491881,144.312726 52.7304381,143.548663 53.4030943,142.307062 C61.9234068,126.771124 63.0765318,125.115655 65.1265318,120.403937 C65.1265318,120.403937 70.5398131,130.750616 76.8179381,142.275226 C77.4905943,143.516827 78.8038756,144.28089 80.2132506,144.28089 L91.3921568,144.28089 C94.4351256,144.28089 96.2609068,140.938116 94.6273131,138.391241 L75.3765318,108.62464 L94.6273131,78.8580382 Z M74,57 L119,57 L74,12 L74,57 Z" id="" fill="#000000" fill-rule="nonzero"></path>
    </g>
</svg>
