<?xml version="1.0" encoding="UTF-8"?>
<svg width="24px" height="24px" viewBox="0 0 24 24" version="1.1" xmlns="http://www.w3.org/2000/svg" xmlns:xlink="http://www.w3.org/1999/xlink">
    <!-- Generator: Sketch 49.3 (51167) - http://www.bohemiancoding.com/sketch -->
    <title>icon/undo@3x</title>
    <desc>Created with Sketch.</desc>
    <defs></defs>
    <g id="icon/undo" stroke="none" stroke-width="1" fill="none" fill-rule="evenodd">
        <path d="M11.76,8.86 C13.026673,8.86 14.226661,9.1199974 15.36,9.64 C16.4533388,10.1466692 17.4099959,10.8566621 18.23,11.77 C19.0500041,12.6833379 19.6533314,13.7199942 20.04,14.88 L18.08,15.5 C17.7999986,14.6199956 17.3466698,13.8333368 16.72,13.14 C16.0933302,12.4466632 15.3600042,11.9066686 14.52,11.52 C13.653329,11.119998 12.7333382,10.92 11.76,10.92 C10.959996,10.92 10.1866704,11.0599986 9.44,11.34 C8.706663,11.606668 8.0466696,11.9933308 7.46,12.5 L10.5,15.5 L3,15.5 L3,8 L5.96,11 C6.7466706,10.3199966 7.6266618,9.8000018 8.6,9.44 C9.6133384,9.0533314 10.6666612,8.86 11.76,8.86 Z" id="undo---material" fill="#000000"></path>
    </g>
</svg>