<?xml version="1.0" encoding="UTF-8"?>
<svg width="15px" height="14px" viewBox="0 0 15 14" version="1.1" xmlns="http://www.w3.org/2000/svg" xmlns:xlink="http://www.w3.org/1999/xlink">
    <!-- Generator: Sketch 52.4 (67378) - http://www.bohemiancoding.com/sketch -->
    <title>zoom_in - material</title>
    <desc>Created with Sketch.</desc>
    <g id="Page-1" stroke="none" stroke-width="1" fill="none" fill-rule="evenodd">
        <g id="Dossier/Aanmelding-Stijl-Copy-3" transform="translate(-1461.000000, -994.000000)" fill="#000000">
            <path d="M1468.71896,999.494317 L1467.14478,999.494317 L1467.14478,1000.95659 L1466.37643,1000.95659 L1466.37643,999.494317 L1464.80224,999.494317 L1464.80224,998.780587 L1466.37643,998.780587 L1466.37643,997.318309 L1467.14478,997.318309 L1467.14478,998.780587 L1468.71896,998.780587 L1468.71896,999.494317 Z M1466.78871,1002.41887 C1467.42588,1002.41887 1468.01307,1002.2709 1468.5503,1001.97497 C1469.08752,1001.67903 1469.5123,1001.28155 1469.82464,1000.78251 C1470.13697,1000.28348 1470.29314,999.738033 1470.29314,999.146156 C1470.29314,998.554279 1470.13697,998.008832 1469.82464,997.509798 C1469.5123,997.010765 1469.08752,996.616186 1468.5503,996.32605 C1468.01307,996.035914 1467.42588,995.890849 1466.78871,995.890849 C1466.15154,995.890849 1465.56435,996.035914 1465.02713,996.32605 C1464.4899,996.616186 1464.062,997.010765 1463.74342,997.509798 C1463.42483,998.008832 1463.26554,998.554279 1463.26554,999.146156 C1463.26554,999.738033 1463.42483,1000.28348 1463.74342,1000.78251 C1464.062,1001.28155 1464.4899,1001.67903 1465.02713,1001.97497 C1465.56435,1002.2709 1466.15154,1002.41887 1466.78871,1002.41887 Z M1471.47378,1002.41887 L1475.35301,1006.02234 L1474.17238,1007.11905 L1470.29314,1003.49817 L1470.29314,1002.92371 L1470.06826,1002.73222 C1469.63098,1003.09198 1469.12813,1003.36761 1468.55967,1003.5591 C1467.99121,1003.75059 1467.4009,1003.84633 1466.78871,1003.84633 C1465.86419,1003.84633 1465.01151,1003.63744 1464.23067,1003.21964 C1463.44982,1002.80185 1462.83452,1002.23899 1462.38475,1001.53106 C1461.92249,1000.79992 1461.69136,1000.00496 1461.69136,999.146156 C1461.69136,998.287354 1461.91936,997.495295 1462.37538,996.769956 C1462.83139,996.044616 1463.44982,995.473057 1464.23067,995.055262 C1465.01151,994.637466 1465.86419,994.428571 1466.78871,994.428571 C1467.71324,994.428571 1468.56903,994.643269 1469.35613,995.07267 C1470.11824,995.490465 1470.72104,996.059123 1471.16456,996.77866 C1471.60809,997.498196 1471.82984,998.287354 1471.82984,999.146156 C1471.82984,999.726427 1471.72677,1000.28058 1471.52063,1000.80863 C1471.31449,1001.33667 1471.01777,1001.80378 1470.63047,1002.20997 L1470.83661,1002.41887 L1471.47378,1002.41887 Z" id="zoom_in---material"></path>
        </g>
    </g>
</svg>