<?xml version="1.0" encoding="UTF-8"?>
<svg viewBox="0 0 24 24" version="1.1" xmlns="http://www.w3.org/2000/svg" xmlns:xlink="http://www.w3.org/1999/xlink">
    <title>icon/documents@3x</title>
    <defs></defs>
    <g id="icon/documents" stroke="none" stroke-width="1" fill="none" fill-rule="evenodd">
        <g id="file-multiple" transform="translate(2.000000, 0.000000)" fill="#000000" fill-rule="nonzero">
            <path d="M13,7 L18.5,7 L13,1.5 L13,7 Z M6,0 L14,0 L20,6 L20,18 C20,19.1045695 19.1045695,20 18,20 L6,20 C4.89,20 4,19.1 4,18 L4,2 C4,0.8954305 4.8954305,2.02906125e-16 6,0 Z M2,4 L2,22 L18,22 L18,24 L2,24 C0.8954305,24 0,23.1045695 0,22 L0,4 L2,4 Z" id="Shape"></path>
        </g>
    </g>
</svg>
